<svg version="1.1" id="Layer_1" xmlns="http://www.w3.org/2000/svg" xmlns:xlink="http://www.w3.org/1999/xlink" x="0px" y="0px"
	 width="100%" viewBox="0 0 240 224" enable-background="new 0 0 240 224" xml:space="preserve">
<path fill="#000000" opacity="1.000000" stroke="none" 
	d="
M139.460159,109.612785 
	C134.753845,107.809746 130.438263,106.066139 126.054245,104.516060 
	C119.646271,102.250351 113.577217,103.883896 109.570908,108.881294 
	C108.540985,110.166000 108.819908,111.425308 109.527908,113.000565 
	C111.211838,116.747223 109.475021,119.108269 105.574646,118.220375 
	C101.216789,117.228340 96.888573,115.856224 92.779243,114.105476 
	C89.769341,112.823135 89.354034,110.245728 92.451958,108.508362 
	C95.764809,106.650452 96.903763,104.823929 94.192154,101.595924 
	C93.308144,100.543564 93.493919,99.046722 93.885735,97.741516 
	C95.080605,93.761223 96.262749,89.774963 97.579544,85.834373 
	C98.171463,84.062973 99.276665,82.513138 101.177895,81.944420 
	C104.179054,81.046692 104.087502,79.140167 102.906837,76.926247 
	C102.173759,75.551605 101.382828,74.199196 102.544724,72.794388 
	C103.852806,71.212845 105.552078,71.815262 107.153168,72.313354 
	C110.643684,73.399239 114.122375,74.523430 117.617355,75.594574 
	C119.213318,76.083694 120.987999,76.382301 121.446426,78.319229 
	C121.973427,80.545914 120.141304,81.051216 118.670387,81.809814 
	C117.440323,82.444191 116.636391,83.480637 116.160385,84.978264 
	C117.320915,86.954292 118.251465,89.017899 118.792320,91.514503 
	C119.400009,94.319649 122.455856,96.476631 125.728683,97.257195 
	C135.097244,99.491585 144.485489,101.645927 153.832901,103.965157 
	C157.004272,104.752022 160.823380,105.301208 159.657745,110.206497 
	C158.740280,114.067459 156.597977,116.082748 152.407745,114.513527 
	C148.207443,112.940544 144.015762,111.344612 139.460159,109.612785 
z"/>
<path fill="#000000" opacity="1.000000" stroke="none" 
	d="
M159.017654,117.812927 
	C164.907501,116.430557 170.389053,117.145256 175.829285,117.841606 
	C179.322586,118.288757 180.545731,121.033752 181.262756,124.032982 
	C179.606979,125.993149 177.707565,125.151588 176.017014,124.902840 
	C159.414825,122.460083 144.095459,124.541092 131.743393,137.261963 
	C128.874466,140.216537 126.256638,140.365402 123.295738,137.198105 
	C111.534943,124.617493 96.611031,122.667068 80.544922,124.772675 
	C78.457375,125.046272 76.341133,125.918457 74.138504,124.293205 
	C74.682266,120.406967 76.636772,118.075050 80.740173,117.557030 
	C98.597130,115.302711 113.619331,120.377937 125.183998,134.548706 
	C125.901695,135.428146 126.275780,136.650406 128.005630,137.129562 
	C135.364609,126.507187 145.689117,120.104958 159.017654,117.812927 
z"/>
<path fill="#000000" opacity="1.000000" stroke="none" 
	d="
M109.484734,131.323746 
	C116.596222,134.565948 121.889313,139.197083 125.179581,146.232452 
	C115.774178,139.575943 106.166740,133.988174 94.486038,132.629257 
	C82.841888,131.274582 71.885414,134.421768 60.286247,137.161148 
	C60.629398,132.463318 62.459709,129.849304 66.527885,128.915421 
	C80.946175,125.605591 95.181557,125.732811 109.484734,131.323746 
z"/>
<path fill="#000000" opacity="1.000000" stroke="none" 
	d="
M147.979065,135.968750 
	C141.164215,138.053741 136.544052,143.105728 130.175354,146.927536 
	C130.837646,141.974136 133.598679,139.422897 136.445450,137.127838 
	C144.197205,130.878403 153.213043,127.746590 163.086273,127.058899 
	C171.415802,126.478745 179.690048,126.883858 187.884521,128.659454 
	C192.084961,129.569611 194.541489,131.840836 194.919128,137.194595 
	C179.213715,132.747421 163.824966,129.466858 147.979065,135.968750 
z"/>
</svg>